<!-- Generator: Adobe Illustrator 19.2.0, SVG Export Plug-In  -->
<svg version="1.1"
	 xmlns="http://www.w3.org/2000/svg" xmlns:xlink="http://www.w3.org/1999/xlink" xmlns:a="http://ns.adobe.com/AdobeSVGViewerExtensions/3.0/"
	 x="0px" y="0px" width="11.1px" height="8.9px" viewBox="0 0 11.1 8.9" style="enable-background:new 0 0 11.1 8.9;"
	 xml:space="preserve">
<style type="text/css">
	.st0{fill:#E9CA2C;}
</style>
<defs>
</defs>
<g>
	<g>
		<g>
			<path class="st0" d="M11,4.7c0,0,0-0.1,0-0.1C11,4.6,11,4.6,11,4.7C11,4.7,11,4.7,11,4.7z"/>
		</g>
	</g>
	<g>
		<g>
			<path class="st0" d="M11,4.7c0,0,0-0.1,0-0.1C11,4.6,11,4.6,11,4.7C11,4.7,11,4.7,11,4.7z"/>
		</g>
	</g>
	<g>
		<g>
			<path class="st0" d="M0,4.5c0-0.4,0.3-0.7,0.8-0.7h7.8L6.1,1.3C5.8,1,5.8,0.5,6.1,0.2c0.3-0.3,0.8-0.3,1.1,0l3.7,3.7
				C10.9,4,11,4.2,11,4.3c0,0,0,0.1,0,0.1c0,0,0,0.1,0,0.1c0,0,0,0.1,0,0.1c0,0,0,0,0,0c0,0.1-0.1,0.2-0.2,0.2L7.1,8.7
				C6.8,9,6.4,9,6.1,8.7c-0.3-0.3-0.3-0.8,0-1.1l2.4-2.4H0.8C0.3,5.2,0,4.9,0,4.5z"/>
		</g>
	</g>
</g>
</svg>
